:SAMPLES-PER-SECOND 30
:FULLY-SPECIFIED
:DEGREES
48
root  50.5992 39.6074 -35.0571 -167.903 -79.279 165.175
RightUpLeg  -18.6817 2.08278 -6.90847
RightLeg  61.5612 -1.71301 -3.94307
RightFoot  3.40136 -0.898694 7.10381
RightToes  -5.8209e-011 0 -3.6325e-017
Spine  7.51159 0.61317 -0.230175
Spine1  11.4867 1.38171 -3.14582
HEad  -7.77601 6.87977 -6.59083
LeftShoulder1  9.01797 -12.6631 -48.695
LeftArm  -7.37875 18.3609 -27.1767
LeftForeArm  28.5785 -10.0319 -5.92382
LeftHand  -0.244104 0.0205437 5.32207
RightShoulder  6.92761 10.5056 43.0992
RightArm  10.7684 -8.5061 32.0766
RightForeArm  0.879408 15.1969 7.71478
RightHand  -1.41129 3.83497 -17.8897
LeftUpLeg  -6.5068 12.0088 -6.1121
LeftLeg  17.365 10.0816 2.14347
LeftFoot  -10.0877 0.0110012 4.57744
LeftToes  5.72949e-011 -2.03295e-011 6.54899e-012
49
root  49.2615 39.7872 -35.0447 -172.157 -80.3004 169.13
RightUpLeg  -21.771 0.236576 -5.54959
RightLeg  56.0268 -2.89468 -5.03968
RightFoot  2.43425 -0.671634 5.68589
RightToes  -5.8209e-011 0 -3.6325e-017
Spine  7.87627 -0.186036 -0.153269
Spine1  11.1744 0.167201 -1.90348
HEad  -7.24375 7.17987 -6.15138
LeftShoulder1  8.95599 -12.6253 -48.4722
LeftArm  -6.51411 17.6659 -27.227
LeftForeArm  27.3114 -12.2799 -5.68402
LeftHand  -0.244104 0.0205437 5.32207
RightShoulder  6.72724 10.2973 42.4461
RightArm  9.25042 -11.3553 30.8912
RightForeArm  2.08466 14.426 7.88752
RightHand  -1.40667 3.88816 -17.7325
LeftUpLeg  -2.65977 9.41555 -4.57726
LeftLeg  15.2446 11.9347 0.776202
LeftFoot  -10.9142 0.0484313 4.65622
LeftToes  5.72949e-011 -2.03295e-011 6.54899e-012
50
root  47.925 39.8324 -35.0666 -175.126 -81.3018 171.897
RightUpLeg  -23.6376 -1.95463 -4.27964
RightLeg  47.2668 -3.86733 -4.81262
RightFoot  1.13875 -0.553566 5.15118
RightToes  -5.8209e-011 0 -3.6325e-017
Spine  8.267 -0.882467 -0.488581
Spine1  10.7552 -0.963874 -0.643252
HEad  -6.91613 7.37798 -5.74664
LeftShoulder1  8.92373 -12.5872 -48.4112
LeftArm  -5.26996 16.5723 -26.952
LeftForeArm  25.1939 -14.785 -5.23391
LeftHand  -0.244104 0.0205437 5.32207
RightShoulder  6.5756 10.1373 41.9435
RightArm  6.66975 -13.8819 29.5372
RightForeArm  3.681 13.2879 8.05313
RightHand  -1.35582 3.84797 -17.1832
LeftUpLeg  0.5746 7.57652 -3.62577
LeftLeg  13.899 12.852 -0.254297
LeftFoot  -12.4658 0.116069 4.33233
LeftToes  5.72949e-011 -2.03295e-011 6.54899e-012
51
root  46.5348 39.69 -35.1394 -174.655 -82.1169 171.299
RightUpLeg  -24.1646 -4.652 -3.32874
RightLeg  35.6948 -4.01424 -3.40167
RightFoot  0.0917792 -0.634771 6.33342
RightToes  -5.8209e-011 0 -3.6325e-017
Spine  8.43821 -1.33725 -1.4004
Spine1  10.3224 -1.78277 0.364542
HEad  -6.9592 7.23674 -5.29688
LeftShoulder1  8.96219 -12.6275 -48.4993
LeftArm  -3.7715 14.9201 -26.3037
LeftForeArm  23.2196 -16.9636 -4.79288
LeftHand  -0.244104 0.0205437 5.32207
RightShoulder  6.44975 9.9623 41.6555
RightArm  3.13439 -16.0852 28.1732
RightForeArm  5.1647 11.6959 8.13005
RightHand  -1.35492 3.82743 -17.2072
LeftUpLeg  3.23798 6.6072 -3.30397
LeftLeg  13.6722 12.9702 -0.93631
LeftFoot  -14.8045 0.200945 3.68777
LeftToes  5.72949e-011 -2.03295e-011 6.54899e-012
52
root  45.0629 39.4984 -35.2417 -171.545 -82.847 168.2
RightUpLeg  -23.6527 -8.40497 -2.16692
RightLeg  22.2113 -2.81585 -1.40491
RightFoot  0.0821461 -0.711255 7.10661
RightToes  -5.8209e-011 0 -3.6325e-017
Spine  8.05498 -1.65324 -2.38073
Spine1  10.2646 -2.40267 1.41244
HEad  -7.23801 6.83705 -4.81194
LeftShoulder1  8.99693 -12.6698 -48.5608
LeftArm  -2.63822 12.8 -25.5719
LeftForeArm  22.0157 -18.5855 -4.44591
LeftHand  -0.244104 0.0205437 5.32207
RightShoulder  6.34415 9.80388 41.4464
RightArm  -0.901682 -17.8428 27.1125
RightForeArm  6.19802 9.3202 8.02064
RightHand  -1.43377 3.98875 -17.8774
LeftUpLeg  6.05063 6.01021 -3.25699
LeftLeg  13.0402 12.7219 -1.70116
LeftFoot  -16.557 0.258007 3.46093
LeftToes  5.72949e-011 -2.03295e-011 6.54899e-012
53
root  43.5428 39.305 -35.3599 -167.132 -83.6505 163.817
RightUpLeg  -22.3095 -10.1433 -2.02591
RightLeg  8.33542 -2.64998 1.54863
RightFoot  0.453062 -0.741948 7.197
RightToes  -5.8209e-011 0 -3.6325e-017
Spine  7.50244 -1.93346 -3.10875
Spine1  10.484 -2.98773 2.53641
HEad  -7.53742 6.26962 -4.39872
LeftShoulder1  8.978 -12.6563 -48.4983
LeftArm  -2.26157 10.5042 -24.9867
LeftForeArm  21.6445 -19.7644 -4.18072
LeftHand  -0.244104 0.0205437 5.32207
RightShoulder  6.28123 9.71502 41.3006
RightArm  -4.20611 -19.2874 26.4083
RightForeArm  6.48189 6.60994 7.45375
RightHand  -1.52538 4.30972 -18.3848
LeftUpLeg  9.23273 5.7083 -3.16834
LeftLeg  11.7355 11.917 -2.52693
LeftFoot  -17.8489 0.294047 3.29779
LeftToes  5.72949e-011 -2.03295e-011 6.54899e-012
54
root  41.9433 38.9695 -35.5159 -160.545 -84.4219 156.961
RightUpLeg  -20.6237 -5.82291 -4.72955
RightLeg  -2.39152 -6.89755 4.98748
RightFoot  0.10336 -0.82105 8.22194
RightToes  -5.8209e-011 0 -3.6325e-017
Spine  7.34213 -2.15077 -3.78073
Spine1  10.4399 -3.40565 3.30174
HEad  -7.88618 5.49093 -4.02426
LeftShoulder1  8.93755 -12.6484 -48.3018
LeftArm  -2.59533 8.29943 -24.6647
LeftForeArm  21.7562 -20.6613 -3.98706
LeftHand  -0.244104 0.0205437 5.32207
RightShoulder  6.24505 9.65527 41.245
RightArm  -6.43373 -20.5978 25.9949
RightForeArm  6.12135 4.32625 6.62848
RightHand  -1.55976 4.46173 -18.507
LeftUpLeg  12.4925 5.95432 -2.95334
LeftLeg  11.3636 10.3435 -3.01699
LeftFoot  -19.9519 0.294175 2.34273
LeftToes  5.72949e-011 -2.03295e-011 6.54899e-012
55
root  40.2647 38.5306 -35.7099 -153.469 -85.0761 149.459
RightUpLeg  -20.7771 -6.25491 -4.72098
RightLeg  -4.87052 -5.65949 5.33446
RightFoot  -1.12262 -0.880415 9.6937
RightToes  -5.8209e-011 0 -3.6325e-017
Spine  7.47729 -2.28413 -4.18298
Spine1  10.152 -3.64787 3.78698
HEad  -8.45172 4.66466 -3.61762
LeftShoulder1  8.90491 -12.6675 -48.0663
LeftArm  -3.43567 6.45254 -24.612
LeftForeArm  21.7949 -21.5703 -3.8545
LeftHand  -0.244104 0.0205437 5.32207
RightShoulder  6.16412 9.51238 41.1499
RightArm  -8.21618 -21.638 25.9541
RightForeArm  5.62779 2.74417 5.96807
RightHand  -1.54926 4.29283 -18.694
LeftUpLeg  15.5508 6.83001 -2.35787
LeftLeg  12.167 8.20963 -3.02508
LeftFoot  -22.049 0.239011 1.12204
LeftToes  5.72949e-011 -2.03295e-011 6.54899e-012
56
root  38.5615 38.2047 -35.9156 -150.159 -85.9903 146.186
RightUpLeg  -21.5215 -6.00064 -4.16115
RightLeg  -1.99171 -7.32078 4.94456
RightFoot  -0.194434 -0.830502 8.53409
RightToes  -5.8209e-011 0 -3.6325e-017
Spine  7.31157 -2.48197 -3.58054
Spine1  10.1842 -4.04417 4.30127
HEad  -9.19959 4.10798 -3.3893
LeftShoulder1  8.88678 -12.6409 -48.0471
LeftArm  -4.90566 5.35924 -24.5895
LeftForeArm  21.7685 -22.9983 -3.86133
LeftHand  -0.244104 0.0205437 5.32207
RightShoulder  6.02617 9.27307 40.969
RightArm  -9.39614 -22.2806 26.2721
RightForeArm  5.12724 2.03977 5.56181
RightHand  -1.54685 4.13232 -18.966
LeftUpLeg  17.9511 8.33909 -0.921068
LeftLeg  13.304 5.34761 -2.45651
LeftFoot  -22.6564 0.140218 0.0475209
LeftToes  5.72949e-011 -2.03295e-011 6.54899e-012
57
root  36.7527 37.9826 -36.1325 -158.343 -87.3578 154.74
RightUpLeg  -23.2164 -6.91046 -2.32132
RightLeg  4.74542 -9.19951 3.63953
RightFoot  3.21514 -0.526196 4.40041
RightToes  -5.8209e-011 0 -3.6325e-017
Spine  6.5848 -3.00911 -1.59385
Spine1  10.3941 -4.55989 4.2877
HEad  -9.9163 3.83354 -3.70264
LeftShoulder1  8.90301 -12.5489 -48.4138
LeftArm  -7.34023 5.47396 -24.3842
LeftForeArm  22.4658 -25.3165 -4.22512
LeftHand  -0.244104 0.0205437 5.32207
RightShoulder  5.93848 9.10174 40.9176
RightArm  -10.1651 -22.7044 26.6339
RightForeArm  5.16409 2.33676 5.36158
RightHand  -1.55029 4.23759 -18.809
LeftUpLeg  19.6712 10.1801 1.51137
LeftLeg  15.2437 1.49716 -1.35593
LeftFoot  -22.5078 -0.128273 -2.65619
LeftToes  5.72949e-011 -2.03295e-011 6.54899e-012
58
root  34.8675 37.8564 -36.3357 163.83 -87.884 -167.273
RightUpLeg  -25.1033 -10.8991 2.1327
RightLeg  12.0012 -5.74995 1.2582
RightFoot  7.21231 0.103883 -0.367009
RightToes  -5.8209e-011 0 -3.6325e-017
Spine  6.07522 -3.48246 2.29466
Spine1  10.454 -4.62813 3.33047
HEad  -10.4785 3.62653 -4.55102
LeftShoulder1  8.94118 -12.4536 -48.9139
LeftArm  -9.88576 7.01455 -24.3016
LeftForeArm  23.634 -28.3217 -4.83458
LeftHand  -0.244104 0.0205437 5.32207
RightShoulder  5.99112 9.16297 41.0936
RightArm  -10.7636 -22.9204 26.9458
RightForeArm  5.53388 3.29201 5.28246
RightHand  -1.51453 4.37676 -18.135
LeftUpLeg  20.821 10.8831 4.41489
LeftLeg  18.4401 -0.869799 -0.225911
LeftFoot  -21.0251 -0.548711 -8.14828
LeftToes  5.72949e-011 -2.03295e-011 6.54899e-012
59
root  32.986 37.8323 -36.5483 132.887 -86.3132 -136.475
RightUpLeg  -26.122 -13.3169 6.30083
RightLeg  18.131 -1.38375 -0.383945
RightFoot  8.00595 0.672811 -3.67386
RightToes  -5.8209e-011 0 -3.6325e-017
Spine  6.20905 -3.52266 6.61727
Spine1  10.1399 -4.06458 2.07325
HEad  -10.8153 3.43408 -5.43318
LeftShoulder1  8.93718 -12.385 -49.103
LeftArm  -11.2539 9.59036 -24.8323
LeftForeArm  24.3119 -31.098 -5.442
LeftHand  -0.244104 0.0205437 5.32207
RightShoulder  6.11764 9.39198 41.2272
RightArm  -11.1898 -22.517 27.5248
RightForeArm  5.57377 4.30462 5.32244
RightHand  -1.4585 4.3314 -17.5645
LeftUpLeg  20.0145 9.38214 6.43062
LeftLeg  24.8571 0.856382 0.85024
LeftFoot  -15.2537 -0.352276 -13.2394
LeftToes  5.72949e-011 -2.03295e-011 6.54899e-012
60
root  31.1842 37.8813 -36.8085 127.013 -84.859 -130.66
RightUpLeg  -25.597 -12.3133 7.6682
RightLeg  22.9553 -1.21299 -0.847317
RightFoot  4.90151 0.769097 -5.13436
RightToes  -5.8209e-011 0 -3.6325e-017
Spine  6.46772 -3.36749 9.453
Spine1  9.54076 -3.43496 1.55707
HEad  -10.7939 3.18435 -5.8395
LeftShoulder1  8.88675 -12.3484 -48.9382
LeftArm  -10.8835 12.166 -25.9043
LeftForeArm  24.1661 -32.6373 -5.82581
LeftHand  -0.244104 0.0205437 5.32207
RightShoulder  6.17712 9.54716 41.1252
RightArm  -11.1368 -21.2466 28.4937
RightForeArm  5.03271 5.54077 5.61079
RightHand  -1.44966 4.2634 -17.5783
LeftUpLeg  15.7484 7.88372 7.66723
LeftLeg  35.4235 3.05454 2.70364
LeftFoot  -3.76832 0.842279 -13.2276
LeftToes  5.72949e-011 -2.03295e-011 6.54899e-012
61
root  29.571 37.9425 -37.0782 115.382 -84.1231 -118.743
RightUpLeg  -24.4912 -12.4923 8.63964
RightLeg  26.1654 -1.78264 -1.18664
RightFoot  0.652003 0.544885 -5.11151
RightToes  -5.8209e-011 0 -3.6325e-017
Spine  6.49733 -3.33245 11.4706
Spine1  9.18385 -3.11444 1.92227
HEad  -10.4406 2.54684 -5.67419
LeftShoulder1  8.88193 -12.3764 -48.8251
LeftArm  -9.36022 13.7625 -26.9138
LeftForeArm  24.0317 -32.7219 -5.85612
LeftHand  -0.244104 0.0205437 5.32207
RightShoulder  6.14198 9.49816 41.0391
RightArm  -10.1076 -19.3363 29.4331
RightForeArm  3.8846 7.89374 6.24299
RightHand  -1.50087 4.37449 -17.9811
LeftUpLeg  8.61073 5.58584 8.35872
LeftLeg  47.2575 3.69536 4.66703
LeftFoot  7.78514 1.43599 -8.76122
LeftToes  5.72949e-011 -2.03295e-011 6.54899e-012
62
root  28.0473 38.1104 -37.3286 103.63 -83.6207 -106.801
RightUpLeg  -22.5907 -13.4787 9.32437
RightLeg  27.5919 -2.01485 -1.38422
RightFoot  -2.60279 0.323687 -4.46688
RightToes  -5.8209e-011 0 -3.6325e-017
Spine  6.46159 -3.20791 13.1933
Spine1  9.1581 -2.72431 2.18658
HEad  -10.0442 1.44593 -5.17698
LeftShoulder1  8.96885 -12.4611 -49.0426
LeftArm  -7.98948 14.3743 -27.4936
LeftForeArm  24.9716 -31.9709 -5.61719
LeftHand  -0.244104 0.0205437 5.32207
RightShoulder  6.10599 9.37307 41.2073
RightArm  -6.86088 -17.0356 30.0335
RightForeArm  1.12749 11.8499 6.77528
RightHand  -1.5754 4.61029 -18.4199
LeftUpLeg  1.2687 3.23808 8.65186
LeftLeg  56.9549 3.39791 6.13441
LeftFoot  11.8964 0.910101 -4.6745
LeftToes  5.72949e-011 -2.03295e-011 6.54899e-012
